<svg version="1.1" xmlns="http://www.w3.org/2000/svg" xmlns:xlink="http://www.w3.org/1999/xlink" width="724" height="579"><defs/><g><g transform="translate(-142,-230) scale(1,1)"><path fill="#ffffff" stroke="none" d="M 169.55681125710228 353.68 C 169.55681125710228 348.886167936 173.44265358204774 345 178.236083984375 345 C 183.02951438670226 345 186.91535671164772 348.886167936 186.91535671164772 353.68 C 186.91535671164772 358.473832064 183.02951438670226 362.36 178.236083984375 362.36 C 173.44265358204774 362.36 169.55681125710228 358.473832064 169.55681125710228 353.68 Z"/></g><g transform="translate(-142,-230) scale(1,1)"><path fill="none" stroke="#000000" d="M 169.55681125710228 353.68 C 169.55681125710228 348.886167936 173.44265358204774 345 178.236083984375 345 C 183.02951438670226 345 186.91535671164772 348.886167936 186.91535671164772 353.68 C 186.91535671164772 358.473832064 183.02951438670226 362.36 178.236083984375 362.36 C 173.44265358204774 362.36 169.55681125710228 358.473832064 169.55681125710228 353.68 Z" stroke-miterlimit="10"/></g><g transform="translate(-142,-230) scale(1,1)"><path fill="none" stroke="#000000" d="M 178.236083984375 362.36 L 178.236083984375 379.64" stroke-miterlimit="10"/></g><g transform="translate(-142,-230) scale(1,1)"><path fill="none" stroke="#000000" d="M 169.04626580255683 368.84 L 187.42590216619317 368.84" stroke-miterlimit="10"/></g><g transform="translate(-142,-230) scale(1,1)"><path fill="none" stroke="#000000" d="M 178.236083984375 379.64 L 165.47244762073865 397" stroke-miterlimit="10"/></g><g transform="translate(-142,-230) scale(1,1)"><path fill="none" stroke="#000000" d="M 178.236083984375 379.64 L 190.99972034801135 397" stroke-miterlimit="10"/></g><g transform="translate(-142,-230) scale(1,1)"><g><path fill="none" stroke="none"/><text fill="#000000" stroke="none" font-family="Arial" font-size="13px" font-style="normal" font-weight="bold" text-decoration="none" x="164.736083984375" y="417.5">User</text></g></g><g transform="translate(-142,-230) scale(1,1)"><path fill="#ffffff" stroke="none" d="M 167.82072727272728 529.6800000000001 C 167.82072727272728 524.8861679360001 171.70656959767274 521 176.5 521 C 181.29343040232726 521 185.17927272727272 524.8861679360001 185.17927272727272 529.6800000000001 C 185.17927272727272 534.473832064 181.29343040232726 538.36 176.5 538.36 C 171.70656959767274 538.36 167.82072727272728 534.473832064 167.82072727272728 529.6800000000001 Z"/></g><g transform="translate(-142,-230) scale(1,1)"><path fill="none" stroke="#000000" d="M 167.82072727272728 529.6800000000001 C 167.82072727272728 524.8861679360001 171.70656959767274 521 176.5 521 C 181.29343040232726 521 185.17927272727272 524.8861679360001 185.17927272727272 529.6800000000001 C 185.17927272727272 534.473832064 181.29343040232726 538.36 176.5 538.36 C 171.70656959767274 538.36 167.82072727272728 534.473832064 167.82072727272728 529.6800000000001 Z" stroke-miterlimit="10"/></g><g transform="translate(-142,-230) scale(1,1)"><path fill="none" stroke="#000000" d="M 176.5 538.36 L 176.5 555.64" stroke-miterlimit="10"/></g><g transform="translate(-142,-230) scale(1,1)"><path fill="none" stroke="#000000" d="M 167.31018181818183 544.84 L 185.68981818181817 544.84" stroke-miterlimit="10"/></g><g transform="translate(-142,-230) scale(1,1)"><path fill="none" stroke="#000000" d="M 176.5 555.64 L 163.73636363636365 573" stroke-miterlimit="10"/></g><g transform="translate(-142,-230) scale(1,1)"><path fill="none" stroke="#000000" d="M 176.5 555.64 L 189.26363636363635 573" stroke-miterlimit="10"/></g><g transform="translate(-142,-230) scale(1,1)"><g><path fill="none" stroke="none"/><text fill="#000000" stroke="none" font-family="Arial" font-size="13px" font-style="normal" font-weight="bold" text-decoration="none" x="159" y="593.5">Guest</text></g></g><g transform="translate(-142,-230) scale(1,1)"><path fill="#C0C0C0" stroke="none" d="M 287 568 C 287 558.6111584 308.71418719999997 551 335.5 551 C 362.28581280000003 551 384 558.6111584 384 568 C 384 577.3888416 362.28581280000003 585 335.5 585 C 308.71418719999997 585 287 577.3888416 287 568 Z" opacity="0.2"/></g><g transform="translate(-142,-230) scale(1,1)"><path fill="#ffffff" stroke="none" d="M 280 561 C 280 551.6111584 301.71418719999997 544 328.5 544 C 355.28581280000003 544 377 551.6111584 377 561 C 377 570.3888416 355.28581280000003 578 328.5 578 C 301.71418719999997 578 280 570.3888416 280 561 Z"/></g><g transform="translate(-142,-230) scale(1,1)"><path fill="none" stroke="#000000" d="M 280 561 C 280 551.6111584 301.71418719999997 544 328.5 544 C 355.28581280000003 544 377 551.6111584 377 561 C 377 570.3888416 355.28581280000003 578 328.5 578 C 301.71418719999997 578 280 570.3888416 280 561 Z" stroke-miterlimit="10"/></g><g transform="translate(-142,-230) scale(1,1)"><g><path fill="none" stroke="none"/><text fill="#000000" stroke="none" font-family="Arial" font-size="13px" font-style="normal" font-weight="bold" text-decoration="none" x="311" y="568">Log in</text></g></g><g transform="translate(-142,-230) scale(1,1)"><path fill="#C0C0C0" stroke="none" d="M 271 664 C 271 654.6111584 292.71418719999997 647 319.5 647 C 346.28581280000003 647 368 654.6111584 368 664 C 368 673.3888416 346.28581280000003 681 319.5 681 C 292.71418719999997 681 271 673.3888416 271 664 Z" opacity="0.2"/></g><g transform="translate(-142,-230) scale(1,1)"><path fill="#ffffff" stroke="none" d="M 264 657 C 264 647.6111584 285.71418719999997 640 312.5 640 C 339.28581280000003 640 361 647.6111584 361 657 C 361 666.3888416 339.28581280000003 674 312.5 674 C 285.71418719999997 674 264 666.3888416 264 657 Z"/></g><g transform="translate(-142,-230) scale(1,1)"><path fill="none" stroke="#000000" d="M 264 657 C 264 647.6111584 285.71418719999997 640 312.5 640 C 339.28581280000003 640 361 647.6111584 361 657 C 361 666.3888416 339.28581280000003 674 312.5 674 C 285.71418719999997 674 264 666.3888416 264 657 Z" stroke-miterlimit="10"/></g><g transform="translate(-142,-230) scale(1,1)"><g><path fill="none" stroke="none"/><text fill="#000000" stroke="none" font-family="Arial" font-size="13px" font-style="normal" font-weight="bold" text-decoration="none" x="288.5" y="664">Register</text></g></g><g transform="translate(-142,-230) scale(1,1)"><path fill="none" stroke="#000000" d="M 202 578 L 287 639" stroke-miterlimit="10"/></g><g transform="translate(-142,-230) scale(1,1)"><path fill="none" stroke="#000000" d="M 276.2890997261305 636.4946825903249 L 287 639 L 281.19777671314 629.654722854328" stroke-miterlimit="10"/></g><g transform="translate(-142,-230) scale(1,1)"><path fill="#C0C0C0" stroke="none" d="M 295 400 C 295 390.6111584 323.2060576 383 358 383 C 392.7939424 383 421 390.6111584 421 400 C 421 409.3888416 392.7939424 417 358 417 C 323.2060576 417 295 409.3888416 295 400 Z" opacity="0.2"/></g><g transform="translate(-142,-230) scale(1,1)"><path fill="#ffffff" stroke="none" d="M 288 393 C 288 383.6111584 316.2060576 376 351 376 C 385.7939424 376 414 383.6111584 414 393 C 414 402.3888416 385.7939424 410 351 410 C 316.2060576 410 288 402.3888416 288 393 Z"/></g><g transform="translate(-142,-230) scale(1,1)"><path fill="none" stroke="#000000" d="M 288 393 C 288 383.6111584 316.2060576 376 351 376 C 385.7939424 376 414 383.6111584 414 393 C 414 402.3888416 385.7939424 410 351 410 C 316.2060576 410 288 402.3888416 288 393 Z" stroke-miterlimit="10"/></g><g transform="translate(-142,-230) scale(1,1)"><g><path fill="none" stroke="none"/><text fill="#000000" stroke="none" font-family="Arial" font-size="13px" font-style="normal" font-weight="bold" text-decoration="none" x="312.5" y="400">Taxi Request</text></g></g><g transform="translate(-142,-230) scale(1,1)"><path fill="#C0C0C0" stroke="none" d="M 303 312 C 303 302.6111584 335.0116368 295 374.5 295 C 413.9883632 295 446 302.6111584 446 312 C 446 321.3888416 413.9883632 329 374.5 329 C 335.0116368 329 303 321.3888416 303 312 Z" opacity="0.2"/></g><g transform="translate(-142,-230) scale(1,1)"><path fill="#ffffff" stroke="none" d="M 296 305 C 296 295.6111584 328.0116368 288 367.5 288 C 406.9883632 288 439 295.6111584 439 305 C 439 314.3888416 406.9883632 322 367.5 322 C 328.0116368 322 296 314.3888416 296 305 Z"/></g><g transform="translate(-142,-230) scale(1,1)"><path fill="none" stroke="#000000" d="M 296 305 C 296 295.6111584 328.0116368 288 367.5 288 C 406.9883632 288 439 295.6111584 439 305 C 439 314.3888416 406.9883632 322 367.5 322 C 328.0116368 322 296 314.3888416 296 305 Z" stroke-miterlimit="10"/></g><g transform="translate(-142,-230) scale(1,1)"><g><path fill="none" stroke="none"/><text fill="#000000" stroke="none" font-family="Arial" font-size="13px" font-style="normal" font-weight="bold" text-decoration="none" x="323" y="312">Delete Request</text></g></g><g transform="translate(-142,-230) scale(1,1)"><path fill="none" stroke="#000000" d="M 364 323 L 354 375" stroke-miterlimit="10" stroke-dasharray="3"/></g><g transform="translate(-142,-230) scale(1,1)"><path fill="none" stroke="#000000" d="M 351.78542108428877 364.2252313144974 L 354 375 L 360.05296823446315 365.8151442279925" stroke-miterlimit="10"/></g><g transform="translate(-142,-230) scale(1,1)"><g><path fill="none" stroke="none"/><text fill="#000000" stroke="none" font-family="Arial" font-size="13px" font-style="normal" font-weight="normal" text-decoration="none" x="361" y="361">«include»</text></g></g><g transform="translate(-142,-230) scale(1,1)"><path fill="#C0C0C0" stroke="none" d="M 415 480 C 415 470.6111584 446.340064 463 485 463 C 523.659936 463 555 470.6111584 555 480 C 555 489.3888416 523.659936 497 485 497 C 446.340064 497 415 489.3888416 415 480 Z" opacity="0.2"/></g><g transform="translate(-142,-230) scale(1,1)"><path fill="#ffffff" stroke="none" d="M 408 473 C 408 463.6111584 439.340064 456 478 456 C 516.659936 456 548 463.6111584 548 473 C 548 482.3888416 516.659936 490 478 490 C 439.340064 490 408 482.3888416 408 473 Z"/></g><g transform="translate(-142,-230) scale(1,1)"><path fill="none" stroke="#000000" d="M 408 473 C 408 463.6111584 439.340064 456 478 456 C 516.659936 456 548 463.6111584 548 473 C 548 482.3888416 516.659936 490 478 490 C 439.340064 490 408 482.3888416 408 473 Z" stroke-miterlimit="10"/></g><g transform="translate(-142,-230) scale(1,1)"><g><path fill="none" stroke="none"/><text fill="#000000" stroke="none" font-family="Arial" font-size="13px" font-style="normal" font-weight="bold" text-decoration="none" x="435" y="480">Share Request</text></g></g><g transform="translate(-142,-230) scale(1,1)"><path fill="#C0C0C0" stroke="none" d="M 215 480 C 215 470.6111584 251.4887888 463 296.5 463 C 341.5112112 463 378 470.6111584 378 480 C 378 489.3888416 341.5112112 497 296.5 497 C 251.4887888 497 215 489.3888416 215 480 Z" opacity="0.2"/></g><g transform="translate(-142,-230) scale(1,1)"><path fill="#ffffff" stroke="none" d="M 208 473 C 208 463.6111584 244.4887888 456 289.5 456 C 334.5112112 456 371 463.6111584 371 473 C 371 482.3888416 334.5112112 490 289.5 490 C 244.4887888 490 208 482.3888416 208 473 Z"/></g><g transform="translate(-142,-230) scale(1,1)"><path fill="none" stroke="#000000" d="M 208 473 C 208 463.6111584 244.4887888 456 289.5 456 C 334.5112112 456 371 463.6111584 371 473 C 371 482.3888416 334.5112112 490 289.5 490 C 244.4887888 490 208 482.3888416 208 473 Z" stroke-miterlimit="10"/></g><g transform="translate(-142,-230) scale(1,1)"><g><path fill="none" stroke="none"/><text fill="#000000" stroke="none" font-family="Arial" font-size="13px" font-style="normal" font-weight="bold" text-decoration="none" x="240" y="480">Booking Request</text></g></g><g transform="translate(-142,-230) scale(1,1)"><path fill="none" stroke="#000000" d="M 449 455 L 380 411" stroke-miterlimit="10" stroke-dasharray="3"/></g><g transform="translate(-142,-230) scale(1,1)"><path fill="none" stroke="#000000" d="M 390.832054467148 412.9148357686076 L 380 411 L 386.3054258110614 420.01341252474333" stroke-miterlimit="10"/></g><g transform="translate(-142,-230) scale(1,1)"><g><path fill="none" stroke="none"/><text fill="#000000" stroke="none" font-family="Arial" font-size="13px" font-style="normal" font-weight="normal" text-decoration="none" x="383" y="444">«extend»</text></g></g><g transform="translate(-142,-230) scale(1,1)"><path fill="#ffffff" stroke="none" d="M 493.32072727272725 537.6800000000001 C 493.32072727272725 532.8861679360001 497.20656959767274 529 502 529 C 506.79343040232726 529 510.67927272727275 532.8861679360001 510.67927272727275 537.6800000000001 C 510.67927272727275 542.473832064 506.79343040232726 546.36 502 546.36 C 497.20656959767274 546.36 493.32072727272725 542.473832064 493.32072727272725 537.6800000000001 Z"/></g><g transform="translate(-142,-230) scale(1,1)"><path fill="none" stroke="#000000" d="M 493.32072727272725 537.6800000000001 C 493.32072727272725 532.8861679360001 497.20656959767274 529 502 529 C 506.79343040232726 529 510.67927272727275 532.8861679360001 510.67927272727275 537.6800000000001 C 510.67927272727275 542.473832064 506.79343040232726 546.36 502 546.36 C 497.20656959767274 546.36 493.32072727272725 542.473832064 493.32072727272725 537.6800000000001 Z" stroke-miterlimit="10"/></g><g transform="translate(-142,-230) scale(1,1)"><path fill="none" stroke="#000000" d="M 502 546.36 L 502 563.64" stroke-miterlimit="10"/></g><g transform="translate(-142,-230) scale(1,1)"><path fill="none" stroke="#000000" d="M 492.81018181818183 552.84 L 511.18981818181817 552.84" stroke-miterlimit="10"/></g><g transform="translate(-142,-230) scale(1,1)"><path fill="none" stroke="#000000" d="M 502 563.64 L 489.23636363636365 581" stroke-miterlimit="10"/></g><g transform="translate(-142,-230) scale(1,1)"><path fill="none" stroke="#000000" d="M 502 563.64 L 514.7636363636364 581" stroke-miterlimit="10"/></g><g transform="translate(-142,-230) scale(1,1)"><g><path fill="none" stroke="none"/><text fill="#000000" stroke="none" font-family="Arial" font-size="13px" font-style="normal" font-weight="bold" text-decoration="none" x="470.5" y="601.5">Taxi Driver</text></g></g><g transform="translate(-142,-230) scale(1,1)"><path fill="#C0C0C0" stroke="none" d="M 607 584 C 607 574.6111584 635.4299152 567 670.5 567 C 705.5700848 567 734 574.6111584 734 584 C 734 593.3888416 705.5700848 601 670.5 601 C 635.4299152 601 607 593.3888416 607 584 Z" opacity="0.2"/></g><g transform="translate(-142,-230) scale(1,1)"><path fill="#ffffff" stroke="none" d="M 600 577 C 600 567.6111584 628.4299152 560 663.5 560 C 698.5700848 560 727 567.6111584 727 577 C 727 586.3888416 698.5700848 594 663.5 594 C 628.4299152 594 600 586.3888416 600 577 Z"/></g><g transform="translate(-142,-230) scale(1,1)"><path fill="none" stroke="#000000" d="M 600 577 C 600 567.6111584 628.4299152 560 663.5 560 C 698.5700848 560 727 567.6111584 727 577 C 727 586.3888416 698.5700848 594 663.5 594 C 628.4299152 594 600 586.3888416 600 577 Z" stroke-miterlimit="10"/></g><g transform="translate(-142,-230) scale(1,1)"><g><path fill="none" stroke="none"/><text fill="#000000" stroke="none" font-family="Arial" font-size="13px" font-style="normal" font-weight="bold" text-decoration="none" x="626.5" y="584">Driver Log In</text></g></g><g transform="translate(-142,-230) scale(1,1)"><path fill="#C0C0C0" stroke="none" d="M 415 672 C 415 662.6111584 467.606536 655 532.5 655 C 597.393464 655 650 662.6111584 650 672 C 650 681.3888416 597.393464 689 532.5 689 C 467.606536 689 415 681.3888416 415 672 Z" opacity="0.2"/></g><g transform="translate(-142,-230) scale(1,1)"><path fill="#ffffff" stroke="none" d="M 408 665 C 408 655.6111584 460.606536 648 525.5 648 C 590.393464 648 643 655.6111584 643 665 C 643 674.3888416 590.393464 682 525.5 682 C 460.606536 682 408 674.3888416 408 665 Z"/></g><g transform="translate(-142,-230) scale(1,1)"><path fill="none" stroke="#000000" d="M 408 665 C 408 655.6111584 460.606536 648 525.5 648 C 590.393464 648 643 655.6111584 643 665 C 643 674.3888416 590.393464 682 525.5 682 C 460.606536 682 408 674.3888416 408 665 Z" stroke-miterlimit="10"/></g><g transform="translate(-142,-230) scale(1,1)"><g><path fill="none" stroke="none"/><text fill="#000000" stroke="none" font-family="Arial" font-size="13px" font-style="normal" font-weight="bold" text-decoration="none" x="452" y="672">Taxi Licence Registration</text></g></g><g transform="translate(-142,-230) scale(1,1)"><path fill="none" stroke="#000000" d="M 635 595 L 553 647" stroke-miterlimit="10" stroke-dasharray="3"/></g><g transform="translate(-142,-230) scale(1,1)"><path fill="none" stroke="#000000" d="M 559.3280924324198 638.0024866675981 L 553 647 L 563.8368397620972 645.1124343797815" stroke-miterlimit="10"/></g><g transform="translate(-142,-230) scale(1,1)"><g><path fill="none" stroke="none"/><text fill="#000000" stroke="none" font-family="Arial" font-size="13px" font-style="normal" font-weight="normal" text-decoration="none" x="580" y="599">«include»</text></g></g><g transform="translate(-142,-230) scale(1,1)"><path fill="none" stroke="#000000" d="M 541 569 L 599 573" stroke-miterlimit="10"/></g><g transform="translate(-142,-230) scale(1,1)"><path fill="none" stroke="#000000" d="M 588.5717837178264 576.5003292948251 L 599 573 L 589.1510309704383 568.1012441319518" stroke-miterlimit="10"/></g><g transform="translate(-142,-230) scale(1,1)"><path fill="#ffffff" stroke="none" d="M 606.8207272727273 729.6800000000001 C 606.8207272727273 724.8861679360001 610.7065695976727 721 615.5 721 C 620.2934304023273 721 624.1792727272727 724.8861679360001 624.1792727272727 729.6800000000001 C 624.1792727272727 734.473832064 620.2934304023273 738.36 615.5 738.36 C 610.7065695976727 738.36 606.8207272727273 734.473832064 606.8207272727273 729.6800000000001 Z"/></g><g transform="translate(-142,-230) scale(1,1)"><path fill="none" stroke="#000000" d="M 606.8207272727273 729.6800000000001 C 606.8207272727273 724.8861679360001 610.7065695976727 721 615.5 721 C 620.2934304023273 721 624.1792727272727 724.8861679360001 624.1792727272727 729.6800000000001 C 624.1792727272727 734.473832064 620.2934304023273 738.36 615.5 738.36 C 610.7065695976727 738.36 606.8207272727273 734.473832064 606.8207272727273 729.6800000000001 Z" stroke-miterlimit="10"/></g><g transform="translate(-142,-230) scale(1,1)"><path fill="none" stroke="#000000" d="M 615.5 738.36 L 615.5 755.64" stroke-miterlimit="10"/></g><g transform="translate(-142,-230) scale(1,1)"><path fill="none" stroke="#000000" d="M 606.3101818181818 744.84 L 624.6898181818182 744.84" stroke-miterlimit="10"/></g><g transform="translate(-142,-230) scale(1,1)"><path fill="none" stroke="#000000" d="M 615.5 755.64 L 602.7363636363636 773" stroke-miterlimit="10"/></g><g transform="translate(-142,-230) scale(1,1)"><path fill="none" stroke="#000000" d="M 615.5 755.64 L 628.2636363636364 773" stroke-miterlimit="10"/></g><g transform="translate(-142,-230) scale(1,1)"><g><path fill="none" stroke="none"/><text fill="#000000" stroke="none" font-family="Arial" font-size="13px" font-style="normal" font-weight="bold" text-decoration="none" x="590.5" y="793.5">Operator</text></g></g><g transform="translate(-142,-230) scale(1,1)"><path fill="#ffffff" stroke="none" d="M 765.3207272727273 593.6800000000001 C 765.3207272727273 588.8861679360001 769.2065695976727 585 774 585 C 778.7934304023273 585 782.6792727272727 588.8861679360001 782.6792727272727 593.6800000000001 C 782.6792727272727 598.473832064 778.7934304023273 602.36 774 602.36 C 769.2065695976727 602.36 765.3207272727273 598.473832064 765.3207272727273 593.6800000000001 Z"/></g><g transform="translate(-142,-230) scale(1,1)"><path fill="none" stroke="#000000" d="M 765.3207272727273 593.6800000000001 C 765.3207272727273 588.8861679360001 769.2065695976727 585 774 585 C 778.7934304023273 585 782.6792727272727 588.8861679360001 782.6792727272727 593.6800000000001 C 782.6792727272727 598.473832064 778.7934304023273 602.36 774 602.36 C 769.2065695976727 602.36 765.3207272727273 598.473832064 765.3207272727273 593.6800000000001 Z" stroke-miterlimit="10"/></g><g transform="translate(-142,-230) scale(1,1)"><path fill="none" stroke="#000000" d="M 774 602.36 L 774 619.64" stroke-miterlimit="10"/></g><g transform="translate(-142,-230) scale(1,1)"><path fill="none" stroke="#000000" d="M 764.8101818181818 608.84 L 783.1898181818182 608.84" stroke-miterlimit="10"/></g><g transform="translate(-142,-230) scale(1,1)"><path fill="none" stroke="#000000" d="M 774 619.64 L 761.2363636363636 637" stroke-miterlimit="10"/></g><g transform="translate(-142,-230) scale(1,1)"><path fill="none" stroke="#000000" d="M 774 619.64 L 786.7636363636364 637" stroke-miterlimit="10"/></g><g transform="translate(-142,-230) scale(1,1)"><g><path fill="none" stroke="none"/><text fill="#000000" stroke="none" font-family="Arial" font-size="13px" font-style="normal" font-weight="bold" text-decoration="none" x="742.5" y="657.5">New Driver</text></g></g><g transform="translate(-142,-230) scale(1,1)"><path fill="#C0C0C0" stroke="none" d="M 671 712 C 671 702.6111584 713.9806592 695 767 695 C 820.0193408 695 863 702.6111584 863 712 C 863 721.3888416 820.0193408 729 767 729 C 713.9806592 729 671 721.3888416 671 712 Z" opacity="0.2"/></g><g transform="translate(-142,-230) scale(1,1)"><path fill="#ffffff" stroke="none" d="M 664 705 C 664 695.6111584 706.9806592 688 760 688 C 813.0193408 688 856 695.6111584 856 705 C 856 714.3888416 813.0193408 722 760 722 C 706.9806592 722 664 714.3888416 664 705 Z"/></g><g transform="translate(-142,-230) scale(1,1)"><path fill="none" stroke="#000000" d="M 664 705 C 664 695.6111584 706.9806592 688 760 688 C 813.0193408 688 856 695.6111584 856 705 C 856 714.3888416 813.0193408 722 760 722 C 706.9806592 722 664 714.3888416 664 705 Z" stroke-miterlimit="10"/></g><g transform="translate(-142,-230) scale(1,1)"><g><path fill="none" stroke="none"/><text fill="#000000" stroke="none" font-family="Arial" font-size="13px" font-style="normal" font-weight="bold" text-decoration="none" x="700.5" y="712">Ask For Registration</text></g></g><g transform="translate(-142,-230) scale(1,1)"><path fill="none" stroke="#000000" d="M 583 726 L 542 683" stroke-miterlimit="10"/></g><g transform="translate(-142,-230) scale(1,1)"><path fill="none" stroke="#000000" d="M 552.0595972885998 687.4502249820875 L 542 683 L 545.9664251961349 693.2599937214146" stroke-miterlimit="10"/></g><g transform="translate(-142,-230) scale(1,1)"><path fill="none" stroke="#000000" d="M 767 664 L 763 687" stroke-miterlimit="10"/></g><g transform="translate(-142,-230) scale(1,1)"><path fill="none" stroke="#000000" d="M 760.5940182733711 676.2663495524063 L 763 687 L 768.8885510240693 677.7088769873103" stroke-miterlimit="10"/></g><g transform="translate(-142,-230) scale(1,1)"><path fill="none" stroke="#000000" d="M 712 723 L 648 747" stroke-miterlimit="10"/></g><g transform="translate(-142,-230) scale(1,1)"><path fill="none" stroke="#000000" d="M 656.037548629421 739.4901523297945 L 648 747 L 658.9936693532607 747.3731409266999" stroke-miterlimit="10"/></g><g transform="translate(-142,-230) scale(1,1)"><path fill="none" stroke="#000000" d="M 303 455 L 337 411" stroke-miterlimit="10" stroke-dasharray="3"/></g><g transform="translate(-142,-230) scale(1,1)"><path fill="none" stroke="#000000" d="M 334.11698611748966 421.6154713015133 L 337 411 L 327.45512959063075 416.46767307621326" stroke-miterlimit="10"/></g><g transform="translate(-142,-230) scale(1,1)"><g><path fill="none" stroke="none"/><text fill="#000000" stroke="none" font-family="Arial" font-size="13px" font-style="normal" font-weight="normal" text-decoration="none" x="270" y="421">«extend»</text></g></g><g transform="translate(-142,-230) scale(1,1)"><path fill="none" stroke="#000000" d="M 202 559 L 279 560" stroke-miterlimit="10"/></g><g transform="translate(-142,-230) scale(1,1)"><path fill="none" stroke="#000000" d="M 268.7835176130465 564.0771911455154 L 279 560 L 268.8928465171246 555.6588655314998" stroke-miterlimit="10"/></g><g transform="translate(-142,-230) scale(1,1)"><path fill="none" stroke="#000000" d="M 205 385 L 287 389" stroke-miterlimit="10"/></g><g transform="translate(-142,-230) scale(1,1)"><path fill="none" stroke="#000000" d="M 276.6442963767635 392.70936685536583 L 287 389 L 277.0544932867136 384.30033020138916" stroke-miterlimit="10"/></g><g transform="translate(-142,-230) scale(1,1)"><path fill="#C0C0C0" stroke="none" d="M 159 264 C 159 254.6111584 200.8613712 247 252.5 247 C 304.1386288 247 346 254.6111584 346 264 C 346 273.3888416 304.1386288 281 252.5 281 C 200.8613712 281 159 273.3888416 159 264 Z" opacity="0.2"/></g><g transform="translate(-142,-230) scale(1,1)"><path fill="#ffffff" stroke="none" d="M 152 257 C 152 247.6111584 193.8613712 240 245.5 240 C 297.1386288 240 339 247.6111584 339 257 C 339 266.3888416 297.1386288 274 245.5 274 C 193.8613712 274 152 266.3888416 152 257 Z"/></g><g transform="translate(-142,-230) scale(1,1)"><path fill="none" stroke="#000000" d="M 152 257 C 152 247.6111584 193.8613712 240 245.5 240 C 297.1386288 240 339 247.6111584 339 257 C 339 266.3888416 297.1386288 274 245.5 274 C 193.8613712 274 152 266.3888416 152 257 Z" stroke-miterlimit="10"/></g><g transform="translate(-142,-230) scale(1,1)"><g><path fill="none" stroke="none"/><text fill="#000000" stroke="none" font-family="Arial" font-size="13px" font-style="normal" font-weight="bold" text-decoration="none" x="187" y="264">AccessPersonalInfo</text></g></g><g transform="translate(-142,-230) scale(1,1)"><path fill="none" stroke="#000000" d="M 199 343 L 235 275" stroke-miterlimit="10"/></g><g transform="translate(-142,-230) scale(1,1)"><path fill="none" stroke="#000000" d="M 233.96533015392174 285.95123090385806 L 235 275 L 226.5246883010911 282.01206757000654" stroke-miterlimit="10"/></g><g transform="translate(-142,-230) scale(1,1)"><path fill="#C0C0C0" stroke="none" d="M 455 264 C 455 254.6111584 496.1897984 247 547 247 C 597.8102016 247 639 254.6111584 639 264 C 639 273.3888416 597.8102016 281 547 281 C 496.1897984 281 455 273.3888416 455 264 Z" opacity="0.2"/></g><g transform="translate(-142,-230) scale(1,1)"><path fill="#ffffff" stroke="none" d="M 448 257 C 448 247.6111584 489.1897984 240 540 240 C 590.8102016 240 632 247.6111584 632 257 C 632 266.3888416 590.8102016 274 540 274 C 489.1897984 274 448 266.3888416 448 257 Z"/></g><g transform="translate(-142,-230) scale(1,1)"><path fill="none" stroke="#000000" d="M 448 257 C 448 247.6111584 489.1897984 240 540 240 C 590.8102016 240 632 247.6111584 632 257 C 632 266.3888416 590.8102016 274 540 274 C 489.1897984 274 448 266.3888416 448 257 Z" stroke-miterlimit="10"/></g><g transform="translate(-142,-230) scale(1,1)"><g><path fill="none" stroke="none"/><text fill="#000000" stroke="none" font-family="Arial" font-size="13px" font-style="normal" font-weight="bold" text-decoration="none" x="484" y="264">ModifyPersonalInfo</text></g></g><g transform="translate(-142,-230) scale(1,1)"><path fill="none" stroke="#000000" d="M 447 257 L 340 257" stroke-miterlimit="10" stroke-dasharray="3"/></g><g transform="translate(-142,-230) scale(1,1)"><path fill="none" stroke="#000000" d="M 350.16267485762415 252.790482243984 L 340 257 L 350.16267485762415 261.209517756016" stroke-miterlimit="10"/></g><g transform="translate(-142,-230) scale(1,1)"><g><path fill="none" stroke="none"/><text fill="#000000" stroke="none" font-family="Arial" font-size="13px" font-style="normal" font-weight="normal" text-decoration="none" x="372" y="253">«include»</text></g></g><g transform="translate(-142,-230) scale(1,1)"><path fill="#C0C0C0" stroke="none" d="M 695 456 C 695 446.6111584 727.6832096 439 768 439 C 808.3167904 439 841 446.6111584 841 456 C 841 465.3888416 808.3167904 473 768 473 C 727.6832096 473 695 465.3888416 695 456 Z" opacity="0.2"/></g><g transform="translate(-142,-230) scale(1,1)"><path fill="#ffffff" stroke="none" d="M 688 449 C 688 439.6111584 720.6832096 432 761 432 C 801.3167904 432 834 439.6111584 834 449 C 834 458.3888416 801.3167904 466 761 466 C 720.6832096 466 688 458.3888416 688 449 Z"/></g><g transform="translate(-142,-230) scale(1,1)"><path fill="none" stroke="#000000" d="M 688 449 C 688 439.6111584 720.6832096 432 761 432 C 801.3167904 432 834 439.6111584 834 449 C 834 458.3888416 801.3167904 466 761 466 C 720.6832096 466 688 458.3888416 688 449 Z" stroke-miterlimit="10"/></g><g transform="translate(-142,-230) scale(1,1)"><g><path fill="none" stroke="none"/><text fill="#000000" stroke="none" font-family="Arial" font-size="13px" font-style="normal" font-weight="bold" text-decoration="none" x="718" y="456">ReportProblem</text></g></g><g transform="translate(-142,-230) scale(1,1)"><path fill="none" stroke="#000000" d="M 747 467 L 677 559" stroke-miterlimit="10" stroke-dasharray="3"/></g><g transform="translate(-142,-230) scale(1,1)"><path fill="none" stroke="#000000" d="M 679.8036664840714 548.3632968337885 L 677 559 L 686.5037765213689 553.4612066447758" stroke-miterlimit="10"/></g><g transform="translate(-142,-230) scale(1,1)"><g><path fill="none" stroke="none"/><text fill="#000000" stroke="none" font-family="Arial" font-size="13px" font-style="normal" font-weight="normal" text-decoration="none" x="708" y="538">«include»</text></g></g><g transform="translate(-142,-230) scale(1,1)"><path fill="#C0C0C0" stroke="none" d="M 543 408 C 543 398.6111584 592.9202448 391 654.5 391 C 716.0797552 391 766 398.6111584 766 408 C 766 417.3888416 716.0797552 425 654.5 425 C 592.9202448 425 543 417.3888416 543 408 Z" opacity="0.2"/></g><g transform="translate(-142,-230) scale(1,1)"><path fill="#ffffff" stroke="none" d="M 536 401 C 536 391.6111584 585.9202448 384 647.5 384 C 709.0797552 384 759 391.6111584 759 401 C 759 410.3888416 709.0797552 418 647.5 418 C 585.9202448 418 536 410.3888416 536 401 Z"/></g><g transform="translate(-142,-230) scale(1,1)"><path fill="none" stroke="#000000" d="M 536 401 C 536 391.6111584 585.9202448 384 647.5 384 C 709.0797552 384 759 391.6111584 759 401 C 759 410.3888416 709.0797552 418 647.5 418 C 585.9202448 418 536 410.3888416 536 401 Z" stroke-miterlimit="10"/></g><g transform="translate(-142,-230) scale(1,1)"><g><path fill="none" stroke="none"/><text fill="#000000" stroke="none" font-family="Arial" font-size="13px" font-style="normal" font-weight="bold" text-decoration="none" x="578" y="408">RideRequestNotification</text></g></g><g transform="translate(-142,-230) scale(1,1)"><path fill="none" stroke="#000000" d="M 631 419 L 537 527" stroke-miterlimit="10"/></g><g transform="translate(-142,-230) scale(1,1)"><path fill="none" stroke="#000000" d="M 540.4967856963312 516.5705949453512 L 537 527 L 546.8473039161154 522.0978978403485" stroke-miterlimit="10"/></g><g transform="translate(-142,-230) scale(1,1)"><path fill="none" stroke="#000000" d="M 415 395 L 535 398" stroke-miterlimit="10" stroke-dasharray="3"/></g><g transform="translate(-142,-230) scale(1,1)"><path fill="none" stroke="#000000" d="M 524.73529441792 401.9542153852841 L 535 398 L 524.9457045628213 393.5378095892344" stroke-miterlimit="10"/></g><g transform="translate(-142,-230) scale(1,1)"><g><path fill="none" stroke="none"/><text fill="#000000" stroke="none" font-family="Arial" font-size="13px" font-style="normal" font-weight="normal" text-decoration="none" x="451" y="415">«include»</text></g></g><g transform="translate(-142,-230) scale(1,1)"><path fill="none" stroke="#000000" d="M 325 579 L 315 639" stroke-miterlimit="10" stroke-dasharray="3"/></g><g transform="translate(-142,-230) scale(1,1)"><path fill="none" stroke="#000000" d="M 312.5184907181093 628.2835588144249 L 315 639 L 320.8229761917047 629.6676397266908" stroke-miterlimit="10"/></g><g transform="translate(-142,-230) scale(1,1)"><g><path fill="none" stroke="none"/><text fill="#000000" stroke="none" font-family="Arial" font-size="13px" font-style="normal" font-weight="normal" text-decoration="none" x="322" y="620">«include»</text></g></g></g></svg>