<svg version="1.1" xmlns="http://www.w3.org/2000/svg" xmlns:xlink="http://www.w3.org/1999/xlink" width="386" height="608"><defs/><g><g transform="translate(-358,-78) scale(1,1)"><rect fill="#C0C0C0" stroke="none" x="383" y="351" width="90" height="48" opacity="0.2"/></g><g transform="translate(-358,-78) scale(1,1)"><rect fill="#ffffff" stroke="none" x="376" y="344" width="90" height="48"/></g><g transform="translate(-358,-78) scale(1,1)"><path fill="none" stroke="#000000" d="M 376 344 L 466 344 L 466 392 L 376 392 L 376 344 Z Z" stroke-miterlimit="10"/></g><g transform="translate(-358,-78) scale(1,1)"><path fill="none" stroke="#000000" d="M 376 369 L 466 369" stroke-miterlimit="10"/></g><g transform="translate(-358,-78) scale(1,1)"><path fill="none" stroke="#000000" d="M 376 379 L 466 379" stroke-miterlimit="10"/></g><g transform="translate(-358,-78) scale(1,1)"><g><path fill="none" stroke="none"/><text fill="#000000" stroke="none" font-family="Arial" font-size="13px" font-style="normal" font-weight="bold" text-decoration="none" x="407.5" y="363.5">User</text></g></g><g transform="translate(-358,-78) scale(1,1)"><rect fill="#C0C0C0" stroke="none" x="495" y="351" width="128" height="48" opacity="0.2"/></g><g transform="translate(-358,-78) scale(1,1)"><rect fill="#ffffff" stroke="none" x="488" y="344" width="128" height="48"/></g><g transform="translate(-358,-78) scale(1,1)"><path fill="none" stroke="#000000" d="M 488 344 L 616 344 L 616 392 L 488 392 L 488 344 Z Z" stroke-miterlimit="10"/></g><g transform="translate(-358,-78) scale(1,1)"><path fill="none" stroke="#000000" d="M 488 369 L 616 369" stroke-miterlimit="10"/></g><g transform="translate(-358,-78) scale(1,1)"><path fill="none" stroke="#000000" d="M 488 379 L 616 379" stroke-miterlimit="10"/></g><g transform="translate(-358,-78) scale(1,1)"><g><path fill="none" stroke="none"/><text fill="#000000" stroke="none" font-family="Arial" font-size="13px" font-style="normal" font-weight="bold" text-decoration="none" x="522.5" y="363.5">TaxiDriver</text></g></g><g transform="translate(-358,-78) scale(1,1)"><rect fill="#C0C0C0" stroke="none" x="463" y="503" width="74" height="52" opacity="0.2"/></g><g transform="translate(-358,-78) scale(1,1)"><rect fill="#ffffff" stroke="none" x="456" y="496" width="74" height="52"/></g><g transform="translate(-358,-78) scale(1,1)"><path fill="none" stroke="#000000" d="M 456 496 L 530 496 L 530 548 L 456 548 L 456 496 Z Z" stroke-miterlimit="10"/></g><g transform="translate(-358,-78) scale(1,1)"><path fill="none" stroke="#000000" d="M 456 521 L 530 521" stroke-miterlimit="10"/></g><g transform="translate(-358,-78) scale(1,1)"><path fill="none" stroke="#000000" d="M 456 531 L 530 531" stroke-miterlimit="10"/></g><g transform="translate(-358,-78) scale(1,1)"><g><path fill="none" stroke="none"/><text fill="#000000" stroke="none" font-family="Arial" font-size="13px" font-style="normal" font-weight="bold" text-decoration="none" x="480" y="515.5">Ride</text></g></g><g transform="translate(-358,-78) scale(1,1)"><rect fill="#C0C0C0" stroke="none" x="647" y="439" width="94" height="48" opacity="0.2"/></g><g transform="translate(-358,-78) scale(1,1)"><rect fill="#ffffff" stroke="none" x="640" y="432" width="94" height="48"/></g><g transform="translate(-358,-78) scale(1,1)"><path fill="none" stroke="#000000" d="M 640 432 L 734 432 L 734 480 L 640 480 L 640 432 Z Z" stroke-miterlimit="10"/></g><g transform="translate(-358,-78) scale(1,1)"><path fill="none" stroke="#000000" d="M 640 457 L 734 457" stroke-miterlimit="10"/></g><g transform="translate(-358,-78) scale(1,1)"><path fill="none" stroke="#000000" d="M 640 467 L 734 467" stroke-miterlimit="10"/></g><g transform="translate(-358,-78) scale(1,1)"><g><path fill="none" stroke="none"/><text fill="#000000" stroke="none" font-family="Arial" font-size="13px" font-style="normal" font-weight="bold" text-decoration="none" x="655.5" y="451.5">TaxiStatus</text></g></g><g transform="translate(-358,-78) scale(1,1)"><path fill="none" stroke="#000000" d="M 584 392 L 584 448 M 584 448 A 8 8 0 0 0 592 456 L 640 456" stroke-miterlimit="10"/></g><g transform="translate(-358,-78) scale(1,1)"><g><path fill="none" stroke="none"/><text fill="#000000" stroke="none" font-family="Arial" font-size="13px" font-style="normal" font-weight="normal" text-decoration="none" x="671" y="325">+associate</text></g></g><g transform="translate(-358,-78) scale(1,1)"><g><path fill="none" stroke="none"/><text fill="#000000" stroke="none" font-family="Arial" font-size="13px" font-style="normal" font-weight="normal" text-decoration="none" x="568" y="420">1</text></g></g><g transform="translate(-358,-78) scale(1,1)"><g><path fill="none" stroke="none"/><text fill="#000000" stroke="none" font-family="Arial" font-size="13px" font-style="normal" font-weight="normal" text-decoration="none" x="615" y="475">1</text></g></g><g transform="translate(-358,-78) scale(1,1)"><rect fill="#C0C0C0" stroke="none" x="623" y="95" width="109.74365234375" height="44" opacity="0.2"/></g><g transform="translate(-358,-78) scale(1,1)"><rect fill="#ffffff" stroke="none" x="616" y="88" width="109.74365234375" height="44"/></g><g transform="translate(-358,-78) scale(1,1)"><path fill="none" stroke="#000000" d="M 616 88 L 725.74365234375 88 L 725.74365234375 132 L 616 132 L 616 88 Z Z" stroke-miterlimit="10"/></g><g transform="translate(-358,-78) scale(1,1)"><path fill="none" stroke="#000000" d="M 616 113 L 725.74365234375 113" stroke-miterlimit="10"/></g><g transform="translate(-358,-78) scale(1,1)"><path fill="none" stroke="#000000" d="M 616 123 L 725.74365234375 123" stroke-miterlimit="10"/></g><g transform="translate(-358,-78) scale(1,1)"><g><path fill="none" stroke="none"/><text fill="#000000" stroke="none" font-family="Arial" font-size="13px" font-style="normal" font-weight="bold" text-decoration="none" x="626.871826171875" y="107.5">QueueManager</text></g></g><g transform="translate(-358,-78) scale(1,1)"><rect fill="#C0C0C0" stroke="none" x="439" y="207" width="104" height="48" opacity="0.2"/></g><g transform="translate(-358,-78) scale(1,1)"><rect fill="#ffffff" stroke="none" x="432" y="200" width="104" height="48"/></g><g transform="translate(-358,-78) scale(1,1)"><path fill="none" stroke="#000000" d="M 432 200 L 536 200 L 536 248 L 432 248 L 432 200 Z Z" stroke-miterlimit="10"/></g><g transform="translate(-358,-78) scale(1,1)"><path fill="none" stroke="#000000" d="M 432 225 L 536 225" stroke-miterlimit="10"/></g><g transform="translate(-358,-78) scale(1,1)"><path fill="none" stroke="#000000" d="M 432 235 L 536 235" stroke-miterlimit="10"/></g><g transform="translate(-358,-78) scale(1,1)"><g><path fill="none" stroke="none"/><text fill="#000000" stroke="none" font-family="Arial" font-size="13px" font-style="normal" font-weight="bold" text-decoration="none" x="463.5" y="219.5">Person</text></g></g><g transform="translate(-358,-78) scale(1,1)"><path fill="none" stroke="#000000" d="M 424 344 L 424 312 M 424 312 A 8 8 0 0 1 432 304 L 472 304 M 472 304 A 8 8 0 0 0 480 296 L 480 248" stroke-miterlimit="10"/></g><g transform="translate(-358,-78) scale(1,1)"><path fill="#FFFFFF" stroke="none" d="M 488.419035512032 268.3253497152483 L 480 248 L 471.580964487968 268.3253497152483"/></g><g transform="translate(-358,-78) scale(1,1)"><path fill="none" stroke="#000000" d="M 488.419035512032 268.3253497152483 L 480 248 L 471.580964487968 268.3253497152483 L 488.419035512032 268.3253497152483" stroke-miterlimit="10"/></g><g transform="translate(-358,-78) scale(1,1)"><path fill="none" stroke="#000000" d="M 544 344 L 544 312 M 544 312 A 8 8 0 0 0 536 304 L 488 304 M 488 304 A 8 8 0 0 1 480 296 L 480 248" stroke-miterlimit="10"/></g><g transform="translate(-358,-78) scale(1,1)"><path fill="#FFFFFF" stroke="none" d="M 488.419035512032 268.3253497152483 L 480 248 L 471.580964487968 268.3253497152483"/></g><g transform="translate(-358,-78) scale(1,1)"><path fill="none" stroke="#000000" d="M 488.419035512032 268.3253497152483 L 480 248 L 471.580964487968 268.3253497152483 L 488.419035512032 268.3253497152483" stroke-miterlimit="10"/></g><g transform="translate(-358,-78) scale(1,1)"><rect fill="#C0C0C0" stroke="none" x="631" y="223" width="79" height="44" opacity="0.2"/></g><g transform="translate(-358,-78) scale(1,1)"><rect fill="#ffffff" stroke="none" x="624" y="216" width="79" height="44"/></g><g transform="translate(-358,-78) scale(1,1)"><path fill="none" stroke="#000000" d="M 624 216 L 703 216 L 703 260 L 624 260 L 624 216 Z Z" stroke-miterlimit="10"/></g><g transform="translate(-358,-78) scale(1,1)"><path fill="none" stroke="#000000" d="M 624 241 L 703 241" stroke-miterlimit="10"/></g><g transform="translate(-358,-78) scale(1,1)"><path fill="none" stroke="#000000" d="M 624 251 L 703 251" stroke-miterlimit="10"/></g><g transform="translate(-358,-78) scale(1,1)"><g><path fill="none" stroke="none"/><text fill="#000000" stroke="none" font-family="Arial" font-size="13px" font-style="normal" font-weight="bold" text-decoration="none" x="644.5" y="235.5">Queue</text></g></g><g transform="translate(-358,-78) scale(1,1)"><path fill="none" stroke="#000000" d="M 670 260 L 670 360 M 670 360 A 8 8 0 0 1 662 368 L 616 368" stroke-miterlimit="10"/></g><g transform="translate(-358,-78) scale(1,1)"><g><path fill="none" stroke="none"/><text fill="#000000" stroke="none" font-family="Arial" font-size="13px" font-style="normal" font-weight="normal" text-decoration="none" x="591" y="437">+belong</text></g></g><g transform="translate(-358,-78) scale(1,1)"><g><path fill="none" stroke="none"/><text fill="#000000" stroke="none" font-family="Arial" font-size="13px" font-style="normal" font-weight="normal" text-decoration="none" x="647" y="288">0..*</text></g></g><g transform="translate(-358,-78) scale(1,1)"><g><path fill="none" stroke="none"/><text fill="#000000" stroke="none" font-family="Arial" font-size="13px" font-style="normal" font-weight="normal" text-decoration="none" x="634" y="362">1</text></g></g><g transform="translate(-358,-78) scale(1,1)"><path fill="none" stroke="#000000" d="M 669 132 L 669 216" stroke-miterlimit="10"/></g><g transform="translate(-358,-78) scale(1,1)"><g><path fill="none" stroke="none"/><text fill="#000000" stroke="none" font-family="Arial" font-size="13px" font-style="normal" font-weight="normal" text-decoration="none" x="679" y="180">+manage</text></g></g><g transform="translate(-358,-78) scale(1,1)"><g><path fill="none" stroke="none"/><text fill="#000000" stroke="none" font-family="Arial" font-size="13px" font-style="normal" font-weight="normal" text-decoration="none" x="646" y="160">0..*</text></g></g><g transform="translate(-358,-78) scale(1,1)"><g><path fill="none" stroke="none"/><text fill="#000000" stroke="none" font-family="Arial" font-size="13px" font-style="normal" font-weight="normal" text-decoration="none" x="653" y="201">1</text></g></g><g transform="translate(-358,-78) scale(1,1)"><rect fill="#C0C0C0" stroke="none" x="375" y="639" width="96" height="44" opacity="0.2"/></g><g transform="translate(-358,-78) scale(1,1)"><rect fill="#ffffff" stroke="none" x="368" y="632" width="96" height="44"/></g><g transform="translate(-358,-78) scale(1,1)"><path fill="none" stroke="#000000" d="M 368 632 L 464 632 L 464 676 L 368 676 L 368 632 Z Z" stroke-miterlimit="10"/></g><g transform="translate(-358,-78) scale(1,1)"><path fill="none" stroke="#000000" d="M 368 657 L 464 657" stroke-miterlimit="10"/></g><g transform="translate(-358,-78) scale(1,1)"><path fill="none" stroke="#000000" d="M 368 667 L 464 667" stroke-miterlimit="10"/></g><g transform="translate(-358,-78) scale(1,1)"><g><path fill="none" stroke="none"/><text fill="#000000" stroke="none" font-family="Arial" font-size="13px" font-style="normal" font-weight="bold" text-decoration="none" x="385.5" y="651.5">Single ride</text></g></g><g transform="translate(-358,-78) scale(1,1)"><rect fill="#C0C0C0" stroke="none" x="559" y="639" width="103" height="44" opacity="0.2"/></g><g transform="translate(-358,-78) scale(1,1)"><rect fill="#ffffff" stroke="none" x="552" y="632" width="103" height="44"/></g><g transform="translate(-358,-78) scale(1,1)"><path fill="none" stroke="#000000" d="M 552 632 L 655 632 L 655 676 L 552 676 L 552 632 Z Z" stroke-miterlimit="10"/></g><g transform="translate(-358,-78) scale(1,1)"><path fill="none" stroke="#000000" d="M 552 657 L 655 657" stroke-miterlimit="10"/></g><g transform="translate(-358,-78) scale(1,1)"><path fill="none" stroke="#000000" d="M 552 667 L 655 667" stroke-miterlimit="10"/></g><g transform="translate(-358,-78) scale(1,1)"><g><path fill="none" stroke="none"/><text fill="#000000" stroke="none" font-family="Arial" font-size="13px" font-style="normal" font-weight="bold" text-decoration="none" x="570.5" y="651.5">Shared ride</text></g></g><g transform="translate(-358,-78) scale(1,1)"><path fill="none" stroke="#000000" d="M 416 632 L 416 600 M 416 600 A 8 8 0 0 1 424 592 L 496 592 M 496 592 A 8 8 0 0 0 504 584 L 504 548" stroke-miterlimit="10"/></g><g transform="translate(-358,-78) scale(1,1)"><path fill="#FFFFFF" stroke="none" d="M 512.419035512032 568.3253497152483 L 504 548 L 495.580964487968 568.3253497152483"/></g><g transform="translate(-358,-78) scale(1,1)"><path fill="none" stroke="#000000" d="M 512.419035512032 568.3253497152483 L 504 548 L 495.580964487968 568.3253497152483 L 512.419035512032 568.3253497152483" stroke-miterlimit="10"/></g><g transform="translate(-358,-78) scale(1,1)"><path fill="none" stroke="#000000" d="M 600 632 L 600 600 M 600 600 A 8 8 0 0 0 592 592 L 512 592 M 512 592 A 8 8 0 0 1 504 584 L 504 548" stroke-miterlimit="10"/></g><g transform="translate(-358,-78) scale(1,1)"><path fill="#FFFFFF" stroke="none" d="M 512.419035512032 568.3253497152483 L 504 548 L 495.580964487968 568.3253497152483"/></g><g transform="translate(-358,-78) scale(1,1)"><path fill="none" stroke="#000000" d="M 512.419035512032 568.3253497152483 L 504 548 L 495.580964487968 568.3253497152483 L 512.419035512032 568.3253497152483" stroke-miterlimit="10"/></g><g transform="translate(-358,-78) scale(1,1)"><path fill="none" stroke="#000000" d="M 424 392 L 424 448 M 424 448 A 8 8 0 0 0 432 456 L 456 456 M 456 456 A 8 8 0 0 1 464 464 L 464 496" stroke-miterlimit="10"/></g><g transform="translate(-358,-78) scale(1,1)"><path fill="#FFFFFF" stroke="none" d="M 459.790482243984 485.83732514237585 L 464 496 L 468.209517756016 485.83732514237585 L 464 474"/></g><g transform="translate(-358,-78) scale(1,1)"><path fill="none" stroke="#000000" d="M 459.790482243984 485.83732514237585 L 464 496 L 468.209517756016 485.83732514237585 L 464 474 L 459.790482243984 485.83732514237585" stroke-miterlimit="10"/></g><g transform="translate(-358,-78) scale(1,1)"><path fill="none" stroke="#000000" d="M 552 392 L 552 448 M 552 448 A 8 8 0 0 1 544 456 L 528 456 M 528 456 A 8 8 0 0 0 520 464 L 520 496" stroke-miterlimit="10"/></g><g transform="translate(-358,-78) scale(1,1)"><path fill="#FFFFFF" stroke="none" d="M 515.790482243984 485.83732514237585 L 520 496 L 524.209517756016 485.83732514237585 L 520 474"/></g><g transform="translate(-358,-78) scale(1,1)"><path fill="none" stroke="#000000" d="M 515.790482243984 485.83732514237585 L 520 496 L 524.209517756016 485.83732514237585 L 520 474 L 515.790482243984 485.83732514237585" stroke-miterlimit="10"/></g></g></svg>