<svg version="1.1" xmlns="http://www.w3.org/2000/svg" xmlns:xlink="http://www.w3.org/1999/xlink" width="312" height="419"><defs/><g><g transform="translate(-470,-86) scale(1,1)"><path fill="#C0C0C0" stroke="none" d="M 615 112.5 C 615 107.2532944 619.2532944 103 624.5 103 C 629.7467056 103 634 107.2532944 634 112.5 C 634 117.7467056 629.7467056 122 624.5 122 C 619.2532944 122 615 117.7467056 615 112.5 Z" opacity="0.2"/></g><g transform="translate(-470,-86) scale(1,1)"><path fill="#000000" stroke="none" d="M 608 105.5 C 608 100.2532944 612.2532944 96 617.5 96 C 622.7467056 96 627 100.2532944 627 105.5 C 627 110.7467056 622.7467056 115 617.5 115 C 612.2532944 115 608 110.7467056 608 105.5 Z"/></g><g transform="translate(-470,-86) scale(1,1)"><path fill="#C0C0C0" stroke="none" d="M 609 215 L 648 215 Q 658 215 658 225 L 658 244 Q 658 254 648 254 L 609 254 Q 599 254 599 244 L 599 225 Q 599 215 609 215 Z" opacity="0.2"/></g><g transform="translate(-470,-86) scale(1,1)"><path fill="#ffffff" stroke="none" d="M 602 208 L 641 208 Q 651 208 651 218 L 651 237 Q 651 247 641 247 L 602 247 Q 592 247 592 237 L 592 218 Q 592 208 602 208 Z"/></g><g transform="translate(-470,-86) scale(1,1)"><path fill="none" stroke="#000000" d="M 602 208 L 641 208 Q 651 208 651 218 L 651 237 Q 651 247 641 247 L 602 247 Q 592 247 592 237 L 592 218 Q 592 208 602 208 Z" stroke-miterlimit="10"/></g><g transform="translate(-470,-86) scale(1,1)"><g><path fill="none" stroke="none"/><text fill="#000000" stroke="none" font-family="Arial" font-size="13px" font-style="normal" font-weight="bold" text-decoration="none" x="609" y="227.5">New</text></g></g><g transform="translate(-470,-86) scale(1,1)"><path fill="none" stroke="#000000" d="M 617 116 L 620 207" stroke-miterlimit="10"/></g><g transform="translate(-470,-86) scale(1,1)"><path fill="none" stroke="#000000" d="M 615.4579165621639 196.98154313061465 L 620 207 L 623.8723807897583 196.70414321102362" stroke-miterlimit="10"/></g><g transform="translate(-470,-86) scale(1,1)"><g><path fill="none" stroke="none"/><text fill="#000000" stroke="none" font-family="Arial" font-size="13px" font-style="normal" font-weight="normal" text-decoration="none" x="614" y="167">Log In</text></g></g><g transform="translate(-470,-86) scale(1,1)"><path fill="#C0C0C0" stroke="none" d="M 665 335 L 758.69873046875 335 Q 768.69873046875 335 768.69873046875 345 L 768.69873046875 364 Q 768.69873046875 374 758.69873046875 374 L 665 374 Q 655 374 655 364 L 655 345 Q 655 335 665 335 Z" opacity="0.2"/></g><g transform="translate(-470,-86) scale(1,1)"><path fill="#ffffff" stroke="none" d="M 658 328 L 751.69873046875 328 Q 761.69873046875 328 761.69873046875 338 L 761.69873046875 357 Q 761.69873046875 367 751.69873046875 367 L 658 367 Q 648 367 648 357 L 648 338 Q 648 328 658 328 Z"/></g><g transform="translate(-470,-86) scale(1,1)"><path fill="none" stroke="#000000" d="M 658 328 L 751.69873046875 328 Q 761.69873046875 328 761.69873046875 338 L 761.69873046875 357 Q 761.69873046875 367 751.69873046875 367 L 658 367 Q 648 367 648 357 L 648 338 Q 648 328 658 328 Z" stroke-miterlimit="10"/></g><g transform="translate(-470,-86) scale(1,1)"><g><path fill="none" stroke="none"/><text fill="#000000" stroke="none" font-family="Arial" font-size="13px" font-style="normal" font-weight="bold" text-decoration="none" x="661.349365234375" y="347.5">Waiting for ride</text></g></g><g transform="translate(-470,-86) scale(1,1)"><path fill="none" stroke="#000000" d="M 636 248 L 690 327" stroke-miterlimit="10"/></g><g transform="translate(-470,-86) scale(1,1)"><path fill="none" stroke="#000000" d="M 680.7898845732069 320.98553628116787 L 690 327 L 687.7403330069905 316.2345968454171" stroke-miterlimit="10"/></g><g transform="translate(-470,-86) scale(1,1)"><g><path fill="none" stroke="none"/><text fill="#000000" stroke="none" font-family="Arial" font-size="13px" font-style="normal" font-weight="normal" text-decoration="none" x="657" y="285">Ready</text></g></g><g transform="translate(-470,-86) scale(1,1)"><path fill="#C0C0C0" stroke="none" d="M 609 463 L 648 463 Q 658 463 658 473 L 658 492 Q 658 502 648 502 L 609 502 Q 599 502 599 492 L 599 473 Q 599 463 609 463 Z" opacity="0.2"/></g><g transform="translate(-470,-86) scale(1,1)"><path fill="#ffffff" stroke="none" d="M 602 456 L 641 456 Q 651 456 651 466 L 651 485 Q 651 495 641 495 L 602 495 Q 592 495 592 485 L 592 466 Q 592 456 602 456 Z"/></g><g transform="translate(-470,-86) scale(1,1)"><path fill="none" stroke="#000000" d="M 602 456 L 641 456 Q 651 456 651 466 L 651 485 Q 651 495 641 495 L 602 495 Q 592 495 592 485 L 592 466 Q 592 456 602 456 Z" stroke-miterlimit="10"/></g><g transform="translate(-470,-86) scale(1,1)"><g><path fill="none" stroke="none"/><text fill="#000000" stroke="none" font-family="Arial" font-size="13px" font-style="normal" font-weight="bold" text-decoration="none" x="601.5" y="475.5">Driving</text></g></g><g transform="translate(-470,-86) scale(1,1)"><path fill="none" stroke="#000000" d="M 690 368 L 634 455" stroke-miterlimit="10"/></g><g transform="translate(-470,-86) scale(1,1)"><path fill="none" stroke="#000000" d="M 635.9608737857423 444.1761848687079 L 634 455 L 643.0401402285955 448.73295407330306" stroke-miterlimit="10"/></g><g transform="translate(-470,-86) scale(1,1)"><g><path fill="none" stroke="none"/><text fill="#000000" stroke="none" font-family="Arial" font-size="13px" font-style="normal" font-weight="normal" text-decoration="none" x="684" y="461">AcceptRequest</text></g></g><g transform="translate(-470,-86) scale(1,1)"><path fill="none" stroke="#000000" d="M 621 455 L 621 248" stroke-miterlimit="10"/></g><g transform="translate(-470,-86) scale(1,1)"><path fill="none" stroke="#000000" d="M 625.209517756016 258.16267485762415 L 621 248 L 616.790482243984 258.16267485762415" stroke-miterlimit="10"/></g><g transform="translate(-470,-86) scale(1,1)"><g><path fill="none" stroke="none"/><text fill="#000000" stroke="none" font-family="Arial" font-size="13px" font-style="normal" font-weight="normal" text-decoration="none" x="566" y="357">end ride</text></g></g><g transform="translate(-470,-86) scale(1,1)"><path fill="#C0C0C0" stroke="none" d="M 487 299.5 C 487 292.59644 492.59644 287 499.5 287 C 506.40356 287 512 292.59644 512 299.5 C 512 306.40356 506.40356 312 499.5 312 C 492.59644 312 487 306.40356 487 299.5 Z" opacity="0.2"/></g><g transform="translate(-470,-86) scale(1,1)"><path fill="none" stroke="#000000" d="M 480 292.5 C 480 285.59644 485.59644 280 492.5 280 C 499.40356 280 505 285.59644 505 292.5 C 505 299.40356 499.40356 305 492.5 305 C 485.59644 305 480 299.40356 480 292.5 Z" stroke-miterlimit="10"/></g><g transform="translate(-470,-86) scale(1,1)"><path fill="#000000" stroke="none" d="M 485 292.5 C 485 288.357864 488.357864 285 492.5 285 C 496.642136 285 500 288.357864 500 292.5 C 500 296.642136 496.642136 300 492.5 300 C 488.357864 300 485 296.642136 485 292.5 Z"/></g><g transform="translate(-470,-86) scale(1,1)"><path fill="none" stroke="#000000" d="M 591 242 L 506 285" stroke-miterlimit="10"/></g><g transform="translate(-470,-86) scale(1,1)"><path fill="none" stroke="#000000" d="M 513.1681261033214 276.65626173907145 L 506 285 L 516.968544480807 284.1687166713106" stroke-miterlimit="10"/></g><g transform="translate(-470,-86) scale(1,1)"><g><path fill="none" stroke="none"/><text fill="#000000" stroke="none" font-family="Arial" font-size="13px" font-style="normal" font-weight="normal" text-decoration="none" x="535" y="283">log out</text></g></g></g></svg>