<svg version="1.1" xmlns="http://www.w3.org/2000/svg" xmlns:xlink="http://www.w3.org/1999/xlink" width="410.22119140625" height="645"><defs/><g><g transform="translate(-398,-78) scale(1,1)"><path fill="#C0C0C0" stroke="none" d="M 599 104.5 C 599 99.2532944 603.2532944 95 608.5 95 C 613.7467056 95 618 99.2532944 618 104.5 C 618 109.7467056 613.7467056 114 608.5 114 C 603.2532944 114 599 109.7467056 599 104.5 Z" opacity="0.2"/></g><g transform="translate(-398,-78) scale(1,1)"><path fill="#000000" stroke="none" d="M 592 97.5 C 592 92.2532944 596.2532944 88 601.5 88 C 606.7467056 88 611 92.2532944 611 97.5 C 611 102.7467056 606.7467056 107 601.5 107 C 596.2532944 107 592 102.7467056 592 97.5 Z"/></g><g transform="translate(-398,-78) scale(1,1)"><path fill="#C0C0C0" stroke="none" d="M 577 175 L 640 175 Q 650 175 650 185 L 650 239 Q 650 249 640 249 L 577 249 Q 567 249 567 239 L 567 185 Q 567 175 577 175 Z" opacity="0.2"/></g><g transform="translate(-398,-78) scale(1,1)"><path fill="#ffffff" stroke="none" d="M 570 168 L 633 168 Q 643 168 643 178 L 643 232 Q 643 242 633 242 L 570 242 Q 560 242 560 232 L 560 178 Q 560 168 570 168 Z"/></g><g transform="translate(-398,-78) scale(1,1)"><path fill="none" stroke="#000000" d="M 570 168 L 633 168 Q 643 168 643 178 L 643 232 Q 643 242 633 242 L 570 242 Q 560 242 560 232 L 560 178 Q 560 168 570 168 Z" stroke-miterlimit="10"/></g><g transform="translate(-398,-78) scale(1,1)"><path fill="none" stroke="#000000" d="M 560 193 L 643 193" stroke-miterlimit="10"/></g><g transform="translate(-398,-78) scale(1,1)"><g><path fill="none" stroke="none"/><text fill="#000000" stroke="none" font-family="Arial" font-size="13px" font-style="normal" font-weight="bold" text-decoration="none" x="589" y="187.5">New</text></g></g><g transform="translate(-398,-78) scale(1,1)"><path fill="none" stroke="#000000" d="M 601 108 L 601 167" stroke-miterlimit="10"/></g><g transform="translate(-398,-78) scale(1,1)"><path fill="none" stroke="#000000" d="M 596.790482243984 156.83732514237585 L 601 167 L 605.209517756016 156.83732514237585" stroke-miterlimit="10"/></g><g transform="translate(-398,-78) scale(1,1)"><g><path fill="none" stroke="none"/><text fill="#000000" stroke="none" font-family="Arial" font-size="13px" font-style="normal" font-weight="normal" text-decoration="none" x="624" y="143">DriverAcceptRequest</text></g></g><g transform="translate(-398,-78) scale(1,1)"><path fill="#C0C0C0" stroke="none" d="M 569 327 L 654.50390625 327 Q 664.50390625 327 664.50390625 337 L 664.50390625 391 Q 664.50390625 401 654.50390625 401 L 569 401 Q 559 401 559 391 L 559 337 Q 559 327 569 327 Z" opacity="0.2"/></g><g transform="translate(-398,-78) scale(1,1)"><path fill="#ffffff" stroke="none" d="M 562 320 L 647.50390625 320 Q 657.50390625 320 657.50390625 330 L 657.50390625 384 Q 657.50390625 394 647.50390625 394 L 562 394 Q 552 394 552 384 L 552 330 Q 552 320 562 320 Z"/></g><g transform="translate(-398,-78) scale(1,1)"><path fill="none" stroke="#000000" d="M 562 320 L 647.50390625 320 Q 657.50390625 320 657.50390625 330 L 657.50390625 384 Q 657.50390625 394 647.50390625 394 L 562 394 Q 552 394 552 384 L 552 330 Q 552 320 562 320 Z" stroke-miterlimit="10"/></g><g transform="translate(-398,-78) scale(1,1)"><path fill="none" stroke="#000000" d="M 552 345 L 657.50390625 345" stroke-miterlimit="10"/></g><g transform="translate(-398,-78) scale(1,1)"><g><path fill="none" stroke="none"/><text fill="#000000" stroke="none" font-family="Arial" font-size="13px" font-style="normal" font-weight="bold" text-decoration="none" x="562.251953125" y="339.5">On Going Ride</text></g></g><g transform="translate(-398,-78) scale(1,1)"><path fill="none" stroke="#000000" d="M 602 243 L 603 319" stroke-miterlimit="10"/></g><g transform="translate(-398,-78) scale(1,1)"><path fill="none" stroke="#000000" d="M 598.6571387618965 308.89358835854296 L 603 319 L 607.0754455739218 308.7828211636479" stroke-miterlimit="10"/></g><g transform="translate(-398,-78) scale(1,1)"><g><path fill="none" stroke="none"/><text fill="#000000" stroke="none" font-family="Arial" font-size="13px" font-style="normal" font-weight="normal" text-decoration="none" x="612" y="282">Save starting time and position</text></g></g><g transform="translate(-398,-78) scale(1,1)"><path fill="#C0C0C0" stroke="none" d="M 425 567 L 518 567 Q 528 567 528 577 L 528 596 Q 528 606 518 606 L 425 606 Q 415 606 415 596 L 415 577 Q 415 567 425 567 Z" opacity="0.2"/></g><g transform="translate(-398,-78) scale(1,1)"><path fill="#ffffff" stroke="none" d="M 418 560 L 511 560 Q 521 560 521 570 L 521 589 Q 521 599 511 599 L 418 599 Q 408 599 408 589 L 408 570 Q 408 560 418 560 Z"/></g><g transform="translate(-398,-78) scale(1,1)"><path fill="none" stroke="#000000" d="M 418 560 L 511 560 Q 521 560 521 570 L 521 589 Q 521 599 511 599 L 418 599 Q 408 599 408 589 L 408 570 Q 408 560 418 560 Z" stroke-miterlimit="10"/></g><g transform="translate(-398,-78) scale(1,1)"><g><path fill="none" stroke="none"/><text fill="#000000" stroke="none" font-family="Arial" font-size="13px" font-style="normal" font-weight="bold" text-decoration="none" x="417.5" y="579.5">RideSuccessfull</text></g></g><g transform="translate(-398,-78) scale(1,1)"><path fill="#C0C0C0" stroke="none" d="M 737 567 L 795.22119140625 567 Q 805.22119140625 567 805.22119140625 577 L 805.22119140625 596 Q 805.22119140625 606 795.22119140625 606 L 737 606 Q 727 606 727 596 L 727 577 Q 727 567 737 567 Z" opacity="0.2"/></g><g transform="translate(-398,-78) scale(1,1)"><path fill="#ffffff" stroke="none" d="M 730 560 L 788.22119140625 560 Q 798.22119140625 560 798.22119140625 570 L 798.22119140625 589 Q 798.22119140625 599 788.22119140625 599 L 730 599 Q 720 599 720 589 L 720 570 Q 720 560 730 560 Z"/></g><g transform="translate(-398,-78) scale(1,1)"><path fill="none" stroke="#000000" d="M 730 560 L 788.22119140625 560 Q 798.22119140625 560 798.22119140625 570 L 798.22119140625 589 Q 798.22119140625 599 788.22119140625 599 L 730 599 Q 720 599 720 589 L 720 570 Q 720 560 730 560 Z" stroke-miterlimit="10"/></g><g transform="translate(-398,-78) scale(1,1)"><g><path fill="none" stroke="none"/><text fill="#000000" stroke="none" font-family="Arial" font-size="13px" font-style="normal" font-weight="bold" text-decoration="none" x="728.610595703125" y="579.5">RideFailed</text></g></g><g transform="translate(-398,-78) scale(1,1)"><path fill="#C0C0C0" stroke="none" d="M 591 707.5 C 591 700.59644 596.59644 695 603.5 695 C 610.40356 695 616 700.59644 616 707.5 C 616 714.40356 610.40356 720 603.5 720 C 596.59644 720 591 714.40356 591 707.5 Z" opacity="0.2"/></g><g transform="translate(-398,-78) scale(1,1)"><path fill="none" stroke="#000000" d="M 584 700.5 C 584 693.59644 589.59644 688 596.5 688 C 603.40356 688 609 693.59644 609 700.5 C 609 707.40356 603.40356 713 596.5 713 C 589.59644 713 584 707.40356 584 700.5 Z" stroke-miterlimit="10"/></g><g transform="translate(-398,-78) scale(1,1)"><path fill="#000000" stroke="none" d="M 589 700.5 C 589 696.357864 592.357864 693 596.5 693 C 600.642136 693 604 696.357864 604 700.5 C 604 704.642136 600.642136 708 596.5 708 C 592.357864 708 589 704.642136 589 700.5 Z"/></g><g transform="translate(-398,-78) scale(1,1)"><path fill="none" stroke="#000000" d="M 487 600 L 583 688" stroke-miterlimit="10"/></g><g transform="translate(-398,-78) scale(1,1)"><path fill="none" stroke="#000000" d="M 572.6640673312673 684.235893749185 L 583 688 L 578.3530169751094 678.0297668649936" stroke-miterlimit="10"/></g><g transform="translate(-398,-78) scale(1,1)"><path fill="none" stroke="#000000" d="M 731 600 L 610 690" stroke-miterlimit="10"/></g><g transform="translate(-398,-78) scale(1,1)"><path fill="none" stroke="#000000" d="M 615.6420445969612 680.5571544137426 L 610 690 L 620.6666281420082 687.3124278465281" stroke-miterlimit="10"/></g><g transform="translate(-398,-78) scale(1,1)"><path fill="none" stroke="#000000" d="M 580 395 L 477 559" stroke-miterlimit="10"/></g><g transform="translate(-398,-78) scale(1,1)"><path fill="none" stroke="#000000" d="M 478.84029111012546 548.1550321056264 L 477 559 L 485.969832663189 552.6327319834651" stroke-miterlimit="10"/></g><g transform="translate(-398,-78) scale(1,1)"><path fill="none" stroke="#000000" d="M 631 395 L 745 559" stroke-miterlimit="10"/></g><g transform="translate(-398,-78) scale(1,1)"><path fill="none" stroke="#000000" d="M 735.7429653275333 553.0580046219516 L 745 559 L 742.655913235017 548.2526627838226" stroke-miterlimit="10"/></g></g></svg>