<svg version="1.1" xmlns="http://www.w3.org/2000/svg" xmlns:xlink="http://www.w3.org/1999/xlink" width="565" height="347"><defs/><g><g transform="translate(-254,-86) scale(1,1)"><path fill="#C0C0C0" stroke="none" d="M 599 112.5 C 599 107.2532944 603.2532944 103 608.5 103 C 613.7467056 103 618 107.2532944 618 112.5 C 618 117.7467056 613.7467056 122 608.5 122 C 603.2532944 122 599 117.7467056 599 112.5 Z" opacity="0.2"/></g><g transform="translate(-254,-86) scale(1,1)"><path fill="#000000" stroke="none" d="M 592 105.5 C 592 100.2532944 596.2532944 96 601.5 96 C 606.7467056 96 611 100.2532944 611 105.5 C 611 110.7467056 606.7467056 115 601.5 115 C 596.2532944 115 592 110.7467056 592 105.5 Z"/></g><g transform="translate(-254,-86) scale(1,1)"><path fill="#C0C0C0" stroke="none" d="M 585 183 L 633 183 Q 643 183 643 193 L 643 212 Q 643 222 633 222 L 585 222 Q 575 222 575 212 L 575 193 Q 575 183 585 183 Z" opacity="0.2"/></g><g transform="translate(-254,-86) scale(1,1)"><path fill="#ffffff" stroke="none" d="M 578 176 L 626 176 Q 636 176 636 186 L 636 205 Q 636 215 626 215 L 578 215 Q 568 215 568 205 L 568 186 Q 568 176 578 176 Z"/></g><g transform="translate(-254,-86) scale(1,1)"><path fill="none" stroke="#000000" d="M 578 176 L 626 176 Q 636 176 636 186 L 636 205 Q 636 215 626 215 L 578 215 Q 568 215 568 205 L 568 186 Q 568 176 578 176 Z" stroke-miterlimit="10"/></g><g transform="translate(-254,-86) scale(1,1)"><g><path fill="none" stroke="none"/><text fill="#000000" stroke="none" font-family="Arial" font-size="13px" font-style="normal" font-weight="bold" text-decoration="none" x="589.5" y="195.5">New</text></g></g><g transform="translate(-254,-86) scale(1,1)"><path fill="none" stroke="#000000" d="M 601 116 L 602 175" stroke-miterlimit="10"/></g><g transform="translate(-254,-86) scale(1,1)"><path fill="none" stroke="#000000" d="M 597.6188627653046 164.9101220755271 L 602 175 L 606.0366892537772 164.76744705029876" stroke-miterlimit="10"/></g><g transform="translate(-254,-86) scale(1,1)"><g><path fill="none" stroke="none"/><text fill="#000000" stroke="none" font-family="Arial" font-size="13px" font-style="normal" font-weight="normal" text-decoration="none" x="608" y="151">User Log In</text></g></g><g transform="translate(-254,-86) scale(1,1)"><path fill="#C0C0C0" stroke="none" d="M 441 287 L 546.59130859375 287 Q 556.59130859375 287 556.59130859375 297 L 556.59130859375 316 Q 556.59130859375 326 546.59130859375 326 L 441 326 Q 431 326 431 316 L 431 297 Q 431 287 441 287 Z" opacity="0.2"/></g><g transform="translate(-254,-86) scale(1,1)"><path fill="#ffffff" stroke="none" d="M 434 280 L 539.59130859375 280 Q 549.59130859375 280 549.59130859375 290 L 549.59130859375 309 Q 549.59130859375 319 539.59130859375 319 L 434 319 Q 424 319 424 309 L 424 290 Q 424 280 434 280 Z"/></g><g transform="translate(-254,-86) scale(1,1)"><path fill="none" stroke="#000000" d="M 434 280 L 539.59130859375 280 Q 549.59130859375 280 549.59130859375 290 L 549.59130859375 309 Q 549.59130859375 319 539.59130859375 319 L 434 319 Q 424 319 424 309 L 424 290 Q 424 280 434 280 Z" stroke-miterlimit="10"/></g><g transform="translate(-254,-86) scale(1,1)"><g><path fill="none" stroke="none"/><text fill="#000000" stroke="none" font-family="Arial" font-size="13px" font-style="normal" font-weight="bold" text-decoration="none" x="437.795654296875" y="299.5">Waiting for a ride</text></g></g><g transform="translate(-254,-86) scale(1,1)"><path fill="none" stroke="#000000" d="M 579 216 L 508 279" stroke-miterlimit="10"/></g><g transform="translate(-254,-86) scale(1,1)"><path fill="none" stroke="#000000" d="M 512.8076842960663 269.1062559306723 L 508 279 L 518.3954796902984 275.4036126448068" stroke-miterlimit="10"/></g><g transform="translate(-254,-86) scale(1,1)"><g><path fill="none" stroke="none"/><text fill="#000000" stroke="none" font-family="Arial" font-size="13px" font-style="normal" font-weight="normal" text-decoration="none" x="457" y="261">RideRequest</text></g></g><g transform="translate(-254,-86) scale(1,1)"><path fill="#C0C0C0" stroke="none" d="M 569 391 L 653 391 Q 663 391 663 401 L 663 420 Q 663 430 653 430 L 569 430 Q 559 430 559 420 L 559 401 Q 559 391 569 391 Z" opacity="0.2"/></g><g transform="translate(-254,-86) scale(1,1)"><path fill="#ffffff" stroke="none" d="M 562 384 L 646 384 Q 656 384 656 394 L 656 413 Q 656 423 646 423 L 562 423 Q 552 423 552 413 L 552 394 Q 552 384 562 384 Z"/></g><g transform="translate(-254,-86) scale(1,1)"><path fill="none" stroke="#000000" d="M 562 384 L 646 384 Q 656 384 656 394 L 656 413 Q 656 423 646 423 L 562 423 Q 552 423 552 413 L 552 394 Q 552 384 562 384 Z" stroke-miterlimit="10"/></g><g transform="translate(-254,-86) scale(1,1)"><g><path fill="none" stroke="none"/><text fill="#000000" stroke="none" font-family="Arial" font-size="13px" font-style="normal" font-weight="bold" text-decoration="none" x="580.5" y="403.5">On Ride</text></g></g><g transform="translate(-254,-86) scale(1,1)"><path fill="none" stroke="#000000" d="M 510 320 L 581 383" stroke-miterlimit="10"/></g><g transform="translate(-254,-86) scale(1,1)"><path fill="none" stroke="#000000" d="M 570.6045203097016 379.4036126448068 L 581 383 L 576.1923157039337 373.1062559306723" stroke-miterlimit="10"/></g><g transform="translate(-254,-86) scale(1,1)"><g><path fill="none" stroke="none"/><text fill="#000000" stroke="none" font-family="Arial" font-size="13px" font-style="normal" font-weight="normal" text-decoration="none" x="454" y="371">RideConfirmed</text></g></g><g transform="translate(-254,-86) scale(1,1)"><path fill="none" stroke="#000000" d="M 604 383 L 602 216" stroke-miterlimit="10"/></g><g transform="translate(-254,-86) scale(1,1)"><path fill="none" stroke="#000000" d="M 606.3309158657107 226.11153637011387 L 602 216 L 597.9124840418705 226.21235591291435" stroke-miterlimit="10"/></g><g transform="translate(-254,-86) scale(1,1)"><g><path fill="none" stroke="none"/><text fill="#000000" stroke="none" font-family="Arial" font-size="13px" font-style="normal" font-weight="normal" text-decoration="none" x="619" y="307">RideEnded</text></g></g><g transform="translate(-254,-86) scale(1,1)"><path fill="#C0C0C0" stroke="none" d="M 791 371.5 C 791 364.59644 796.59644 359 803.5 359 C 810.40356 359 816 364.59644 816 371.5 C 816 378.40356 810.40356 384 803.5 384 C 796.59644 384 791 378.40356 791 371.5 Z" opacity="0.2"/></g><g transform="translate(-254,-86) scale(1,1)"><path fill="none" stroke="#000000" d="M 784 364.5 C 784 357.59644 789.59644 352 796.5 352 C 803.40356 352 809 357.59644 809 364.5 C 809 371.40356 803.40356 377 796.5 377 C 789.59644 377 784 371.40356 784 364.5 Z" stroke-miterlimit="10"/></g><g transform="translate(-254,-86) scale(1,1)"><path fill="#000000" stroke="none" d="M 789 364.5 C 789 360.357864 792.357864 357 796.5 357 C 800.642136 357 804 360.357864 804 364.5 C 804 368.642136 800.642136 372 796.5 372 C 792.357864 372 789 368.642136 789 364.5 Z"/></g><g transform="translate(-254,-86) scale(1,1)"><path fill="none" stroke="#000000" d="M 626 216 L 783 353" stroke-miterlimit="10"/></g><g transform="translate(-254,-86) scale(1,1)"><path fill="none" stroke="#000000" d="M 772.5750573086274 349.48993306593775 L 783 353 L 778.1104444609434 343.1464601979552" stroke-miterlimit="10"/></g><g transform="translate(-254,-86) scale(1,1)"><g><path fill="none" stroke="none"/><text fill="#000000" stroke="none" font-family="Arial" font-size="13px" font-style="normal" font-weight="normal" text-decoration="none" x="712" y="285">Log out</text></g></g><g transform="translate(-254,-86) scale(1,1)"><path fill="#C0C0C0" stroke="none" d="M 281 215 L 403.583984375 215 Q 413.583984375 215 413.583984375 225 L 413.583984375 244 Q 413.583984375 254 403.583984375 254 L 281 254 Q 271 254 271 244 L 271 225 Q 271 215 281 215 Z" opacity="0.2"/></g><g transform="translate(-254,-86) scale(1,1)"><path fill="#ffffff" stroke="none" d="M 274 208 L 396.583984375 208 Q 406.583984375 208 406.583984375 218 L 406.583984375 237 Q 406.583984375 247 396.583984375 247 L 274 247 Q 264 247 264 237 L 264 218 Q 264 208 274 208 Z"/></g><g transform="translate(-254,-86) scale(1,1)"><path fill="none" stroke="#000000" d="M 274 208 L 396.583984375 208 Q 406.583984375 208 406.583984375 218 L 406.583984375 237 Q 406.583984375 247 396.583984375 247 L 274 247 Q 264 247 264 237 L 264 218 Q 264 208 274 208 Z" stroke-miterlimit="10"/></g><g transform="translate(-254,-86) scale(1,1)"><g><path fill="none" stroke="none"/><text fill="#000000" stroke="none" font-family="Arial" font-size="13px" font-style="normal" font-weight="bold" text-decoration="none" x="277.2919921875" y="227.5">Unable to be served</text></g></g><g transform="translate(-254,-86) scale(1,1)"><path fill="none" stroke="#000000" d="M 444 279 L 379 248" stroke-miterlimit="10"/></g><g transform="translate(-254,-86) scale(1,1)"><path fill="none" stroke="#000000" d="M 389.98494947433164 248.57522608284137 L 379 248 L 386.360786000399 256.174278528184" stroke-miterlimit="10"/></g><g transform="translate(-254,-86) scale(1,1)"><g><path fill="none" stroke="none"/><text fill="#000000" stroke="none" font-family="Arial" font-size="13px" font-style="normal" font-weight="normal" text-decoration="none" x="310" y="272">No ride available</text></g></g><g transform="translate(-254,-86) scale(1,1)"><path fill="none" stroke="#000000" d="M 408 218 L 567 199" stroke-miterlimit="10"/></g><g transform="translate(-254,-86) scale(1,1)"><path fill="none" stroke="#000000" d="M 557.4085868254358 204.38560983685193 L 567 199 L 556.4096454666407 196.0260479395666" stroke-miterlimit="10"/></g><g transform="translate(-254,-86) scale(1,1)"><g><path fill="none" stroke="none"/><text fill="#000000" stroke="none" font-family="Arial" font-size="13px" font-style="normal" font-weight="normal" text-decoration="none" x="412" y="195">Wait for a new request</text></g></g></g></svg>